<svg xmlns="http://www.w3.org/2000/svg" viewBox="0 0 800 500" width="800" height="500">
  <defs>
    <linearGradient id="bg" x1="0" y1="0" x2="0" y2="1">
      <stop offset="0%" stop-color="#1A1A1E"/>
      <stop offset="100%" stop-color="#0E0E11"/>
    </linearGradient>
    <radialGradient id="glow" cx="50%" cy="40%" r="60%">
      <stop offset="0%" stop-color="#BB0A30" stop-opacity="0.35"/>
      <stop offset="100%" stop-color="#BB0A30" stop-opacity="0"/>
    </radialGradient>
    <linearGradient id="body" x1="0" y1="0" x2="1" y2="0">
      <stop offset="0%" stop-color="#3a3a42"/>
      <stop offset="50%" stop-color="#6a6a74"/>
      <stop offset="100%" stop-color="#2a2a30"/>
    </linearGradient>
  </defs>
  <rect width="800" height="500" fill="url(#bg)"/>
  <rect width="800" height="500" fill="url(#glow)"/>
  <ellipse cx="400" cy="430" rx="280" ry="18" fill="#000" opacity="0.5"/>
  <g>
    <path d="M120 320 Q150 230 260 210 Q330 160 470 165 Q580 170 640 230 Q690 250 690 300 L690 340 Q690 360 660 360 L150 360 Q120 360 120 335 Z" fill="url(#body)" stroke="#BB0A30" stroke-width="2" opacity="0.95"/>
    <path d="M280 220 Q330 180 460 183 Q540 186 590 225 Q540 215 460 213 Q370 211 280 220 Z" fill="#15151a" opacity="0.85"/>
    <circle cx="230" cy="350" r="55" fill="#0c0c0e" stroke="#BB0A30" stroke-width="3"/>
    <circle cx="230" cy="350" r="28" fill="#2a2a30"/>
    <circle cx="580" cy="350" r="55" fill="#0c0c0e" stroke="#BB0A30" stroke-width="3"/>
    <circle cx="580" cy="350" r="28" fill="#2a2a30"/>
    <rect x="150" y="270" width="60" height="14" rx="7" fill="#BB0A30" opacity="0.9"/>
    <rect x="600" y="270" width="60" height="14" rx="7" fill="#fff" opacity="0.85"/>
  </g>
  <text x="400" y="450" font-family="Manrope, Arial, sans-serif" font-size="34" font-weight="800" fill="#F4F4F6" text-anchor="middle" letter-spacing="2">AUDI A1</text>
  <text x="400" y="475" font-family="Manrope, Arial, sans-serif" font-size="14" font-weight="600" fill="#9A9AA2" text-anchor="middle" letter-spacing="4">AUDI ELITE — PLACEHOLDER</text>
</svg>